<svg xmlns="http://www.w3.org/2000/svg" viewBox="0 0 872.148 978.209"><g transform="translate(-2.434)"><g transform="translate(2.434)"><path d="M723.215,35.353c-4.488-7.1-9.107-14.1-14.117-20.784-2,2.44-4.117,5.033-6.666,8.017q-4.51,5.261-9.913,11.59C640.538,94.894,564.9,123.869,488.734,138.923c-1.9.37-3.834.588-5.751.893a65.352,65.352,0,0,1,7.865,30.631,66.207,66.207,0,1,1-132.415,0,65.2,65.2,0,0,1,7.886-30.653c-1.917-.327-3.856-.523-5.751-.893-71.218-7.647-138.929-44.552-190.844-92.743-4.706-4.357-9.107-8.453-13.159-12.222q-5.327-6.242-9.738-11.416c-.61-.719-1.024-1.242-1.612-1.939-1.481,10.174-4.27,20.936-5.12,26.818-6.928,47.384-14.27,95.1-12.287,143.133.915,22.418,3.725,44.923,11,66.229,1.961,5.73,4.183,11.372,6.449,17.015,6.775,16.8,14.008,33.463,15.882,51.676,5.468,53.593-41.437,101.588-94.551,101.588-22.418,0-43.245-9.172-60.892-23.093C-2.974,504.425,17.025,600.7,97.524,661.218c.044,0,22.374,14.161,65.336,14.161,30.631,0,64.2-7.407,99.736-21.307,7.1-2.767-7.276-41.415-9.368-45.6-10.915-21.5-30.98-40.086-53.354-49.323-4.532-1.874-8.8-3.616-12.745-5.272-3.943-1.961-7.908-2.2-11.307-3.072-3.464-.719-6.492-1.351-8.976-1.9-5.054-1.046-7.93-1.656-7.93-1.656s2.919-.087,8.039-.218c2.593-.065,5.751-.153,9.368-.24,3.616.087,7.865-.632,12.222.414,50.129,11.9,100.673,38.648,113.439,93.135.806,3.464,1.5,6.514,2.091,9.019.174.741.24,1.068.392,1.678,32.7,2.854,89.387,7.32,120.127,7.32,20.74,0,41.48-1.394,62.155-2.81,13.115-.893,43.441,3.159,54.639-4.117,6.383-4.161,5.839-12.244,8.3-19.607a122.75,122.75,0,0,1,27.1-44.922c24.64-25.86,60.434-41,96.076-40.108,3.616.087,6.754.174,9.368.24,5.1.131,8.039.218,8.039.218s-2.9.61-7.93,1.656c-2.484.523-5.512,1.177-8.976,1.9-3.4.893-7.364,1.111-11.307,3.072-3.965,1.656-8.257,3.4-12.767,5.272-4.6,1.5-8.932,4.27-13.246,7.233-4.27,3.028-9.085,5.359-13.093,9-3.878,3.682-7.756,7.429-11.7,11.176-3.943,3.573-6.34,8.562-9.52,12.549l-4.357,6.122L594.5,612c-1.7,4.422-4.139,8.518-5.033,12.374-.588,3.878-1.242,7.3-1.917,10.392-.392,1.525-.719,2.963-1.068,4.335,0,2,0,3.922.044,5.708,0,3.573,0,6.688.044,9.259,35.533,13.9,69.1,21.306,99.736,21.306,43.245,0,65.619-14.379,65.815-14.553C949.571,512.529,781.928,148.2,723.215,35.353Z" transform="translate(26.552 302.83)" fill="#010002"/><path d="M18.3,318.945c3.725,2.571,7.865,5.4,12.374,8.5q6.993,3.954,15.076,8.54c89.823,50.935,189.319,76.185,292.781,65.51a423.022,423.022,0,0,0,87.623-18.758c48.256-15.751,94.137-35.315,136.293-63.854,3.268-2.222,6.122-4.118,8.8-5.882-12.2-15.555-25.62-30.13-41.655-42.788-14.9-11.743-30.152-23.137-41.284-38.692-30.74-42.962-16.775-104.943,24.749-135.334-.392-.85-.741-1.678-1.133-2.527C485.283,34.465,453,0,424.827,0,413.956,0,402.845,4.924,391.8,14.618c-28.736,25.206-64.791,39.106-101.457,39.106s-72.7-13.9-101.435-39.106C177.862,4.924,166.751,0,155.88,0,127.3,0,95.773,33.594,69.412,92.154,39.347,158.993,11.679,220.539,11.679,298.772a10.865,10.865,0,0,1-1.394,5.12c1.176,2.767,1.569,6.4,1.416,10.631C13.836,315.939,15.84,317.29,18.3,318.945Zm129.452-25.184a84.472,84.472,0,0,1-18.867,6.405,83.38,83.38,0,0,1-19.847,1.743,48.672,48.672,0,0,1-9.433-1.155,48.762,48.762,0,0,1,8.17-4.858,83.387,83.387,0,0,1,18.867-6.4,85.705,85.705,0,0,1,19.847-1.743,49.882,49.882,0,0,1,9.433,1.133A49.014,49.014,0,0,1,147.754,293.761Zm323.934,8.148a83.3,83.3,0,0,1-19.825-1.743A85.2,85.2,0,0,1,433,293.761a50.925,50.925,0,0,1-8.17-4.836,50.238,50.238,0,0,1,9.433-1.133,84.8,84.8,0,0,1,19.869,1.743,83.557,83.557,0,0,1,18.845,6.405,48.767,48.767,0,0,1,8.17,4.858A51.6,51.6,0,0,1,471.688,301.909Zm22.439-36.361a108.152,108.152,0,0,1,14.1,3.05,109.266,109.266,0,0,1-14.1,3.05,205.1,205.1,0,0,1-31,2.4,203.208,203.208,0,0,1-31-2.375,105.774,105.774,0,0,1-14.074-3.072,106.843,106.843,0,0,1,14.074-3.072,202.983,202.983,0,0,1,31-2.375A205.337,205.337,0,0,1,494.128,265.548Zm-76.1-16.862a61.54,61.54,0,0,1,8.431-3.268,134.779,134.779,0,0,1,17.908-4.161c6.427-1.089,12.9-1.59,17.538-2.462,2.266-.5,4.248-.893,5.272-1.569,1.242-.5,1.612-1.874,1.656-1.678-.218.087.719.741.174,2.7a12.144,12.144,0,0,1-4.335,5.991c-4.553,3.725-11.438,6.688-18.518,7.756a53.924,53.924,0,0,1-19.455-.458A34.86,34.86,0,0,1,418.03,248.686ZM386.092,66.229c6.819-12.113,17.669-26.84,32.417-28.823,14.052-1.874,27.32,6.775,35.86,17.233,3.486,4.248,14.88,21.938,18.888,32.766,8.54,22.875-13.311,14.161-25.141,8.409-15.228-7.407-29.193-9.825-45.533-13.289C390.776,80.041,380.841,75.575,386.092,66.229Zm-31.677,131.7a58.84,58.84,0,0,1,81.893-14.466,8.168,8.168,0,0,1-9.346,13.4,42.449,42.449,0,0,0-59.105,10.435,8.192,8.192,0,0,1-13.442-9.368ZM248.078,301.473a85.418,85.418,0,0,0,29.389-17.886c8.889-8.5,13.159-18.148,17.734-29.258.261-.719.458-1.155.654-1.656-9.934-.436-17.908-9-17.908-14.117,0-5.25,8.344-9.52,18.649-9.52s18.649,4.27,18.649,9.52c0,5.12-7.974,13.682-17.908,14.117.2.5.392.937.654,1.656.85,2.048,1.634,5.512,3.311,8.693,10.74,20.326,27.189,30.261,47.21,39.846a34.142,34.142,0,0,1-3.551.7c-2.244.022-5.8,1.394-9.76.566-3.943-.763-9.019-.98-13.616-3.529-11.133-6.187-22.178-16.4-24.988-29.324,1.176,5.359-7.276,15.533-10.523,19.084-7.886,8.627-16.993,11.655-28.082,13.769-3.987.828-7.538-.545-9.76-.566a32.546,32.546,0,0,1-3.551-.7S245.943,302.279,248.078,301.473ZM225.987,197.925a8.177,8.177,0,0,1-13.42,9.346,42.438,42.438,0,0,0-59.105-10.435,8.168,8.168,0,1,1-9.346-13.4,58.788,58.788,0,0,1,81.871,14.488Zm-63.31,50.761a34.437,34.437,0,0,1-8.671,2.854,54.281,54.281,0,0,1-19.433.458c-7.037-1.068-13.965-4.03-18.518-7.756a12.341,12.341,0,0,1-4.357-5.991c-.566-1.961.392-2.614.174-2.7.065-.174.436,1.176,1.678,1.677,1.024.675,3.006,1.068,5.272,1.569,4.619.871,11.089,1.372,17.516,2.462a134.333,134.333,0,0,1,17.93,4.161A63.949,63.949,0,0,1,162.677,248.686ZM107.472,87.4c4.052-10.828,15.4-28.518,18.888-32.766,8.562-10.457,21.851-19.106,35.881-17.233,14.771,1.983,25.6,16.688,32.417,28.823,5.25,9.346-4.662,13.79-16.514,16.3-16.339,3.464-30.3,5.882-45.554,13.289C120.783,101.588,98.932,110.28,107.472,87.4ZM86.6,265.548a208.214,208.214,0,0,1,31-2.4,202.981,202.981,0,0,1,31,2.375,106.716,106.716,0,0,1,14.1,3.072,111.214,111.214,0,0,1-14.1,3.072,202.754,202.754,0,0,1-31,2.375,205.571,205.571,0,0,1-31-2.4,109.266,109.266,0,0,1-14.1-3.05A109.25,109.25,0,0,1,86.6,265.548Z" transform="translate(160.761 0)" fill="#010002"/><path d="M45.376,124.927c24.553,34.335,64.508,55.031,89.605,89.584,34.073,46.97,57.079,103.723,76.643,158.078,1.351,3.725,2.68,7.429,3.987,11.242.37,1.024.719,2.244,1.22,3.813.675,2.091,2.266,3.181,2.941,1.9a17.693,17.693,0,0,0,1.111-2.4c.588-1.525,1.2-3.137,1.83-4.88.632-1.765,1.2-3.333,1.677-4.6,7.124-18.54,12.353-40.478,16.427-69.018,2.353-16.579,3.856-33.289,4.989-47.45,3.333-41.611,5.926-102.851-10.283-153.983-9.128-28.845-27.93-58.081-47.885-74.442-34.77-28.54-87.863-41-124.2-10.61C33.307,47.565,20.954,90.832,45.376,124.927Z" transform="translate(620.602 94.479)" fill="#010002"/><path d="M65.544,19.685A45.012,45.012,0,1,0,99.922,36.373,44.17,44.17,0,0,0,65.544,19.685Z" transform="translate(385.582 409.17)" fill="#010002"/><path d="M95.487,390.642c20.261,0,40.151-9.194,54.617-25.206,13.682-15.12,20.152-33.746,18.257-52.4-1.394-13.681-6.928-27.319-12.81-41.764l-1.612-3.965c-2.418-6.013-4.793-12.026-6.863-18.126-7.1-20.871-10.98-43.855-12.135-72.373-1.939-47.254,4.706-93.832,11.307-138.95l.392-2.745.806-5.49c.414-2.9,1.242-6.841,2.222-11.329.153-.654.305-1.416.479-2.244.261-1.242-1.264-1-3.333.675-1.242,1-2.484,2.048-3.725,3.072A240.192,240.192,0,0,0,119.8,41.958c-18.453,19.891-35.337,43.114-49.563,63.9C47.819,138.644,16.752,187.989,6.012,237.77-.023,265.7,1.677,298.4,10.347,321.1a119.794,119.794,0,0,0,8.562,17.363,126.276,126.276,0,0,0,8.845,13.159,123,123,0,0,0,9.76,11.263C53.374,379.1,73.548,390.642,95.487,390.642Z" transform="translate(-2.434 317.422)" fill="#010002"/></g></g></svg>