<svg viewBox="-32 0 447 447.99202" xmlns="http://www.w3.org/2000/svg"><path d="m136.496094 95.992188h16v24h-16zm0 0"/><path d="m88.496094 55.992188c4.734375-.015626 9.367187 1.378906 13.3125 4l24 16c1.683594 1.136718 3.214844 2.480468 4.558594 4h28.257812c1.34375-1.519532 2.875-2.863282 4.558594-4l24-16c3.945312-2.621094 8.578125-4.015626 13.3125-4h28c6.101562 0 12.152344 1.085937 17.871094 3.199218l-18.152344-27.199218h-59.71875v9.777343c-.972656 12.535157-11.425782 22.210938-24 22.210938-12.574219 0-23.027344-9.675781-24-22.210938v-9.777343h-59.71875l-18.152344 27.199218c5.71875-2.113281 11.769531-3.199218 17.871094-3.199218zm0 0"/><path d="m144.496094 47.992188c3.894531.371093 7.402344-2.359376 8-6.222657v-9.777343h-16v9.777343c.597656 3.863281 4.105468 6.59375 8 6.222657zm0 0"/><path d="m206.175781 219.113281c-5.519531-8.605469-16.429687-11.992187-25.851562-8.03125-9.425781 3.960938-14.636719 14.128907-12.347657 24.09375 2.285157 9.960938 11.40625 16.839844 21.617188 16.296875h.375c3.304688 0 6.273438 2.035156 7.464844 5.121094 4.765625 12.269531 7.316406 25.285156 7.542968 38.445312 14.625-22.6875 15.367188-51.640624 1.917969-75.046874-.261719-.273438-.5-.570313-.71875-.878907zm0 0"/><path d="m144.496094 285.808594c-7.882813.019531-15.085938 4.460937-18.648438 11.496094-1.582031 3.058593-4.941406 4.761718-8.34375 4.230468-13.011718-2.003906-25.566406-6.300781-37.078125-12.6875 12.339844 23.984375 37.027344 39.082032 64 39.144532.371094-.070313.746094-.121094 1.125-.144532 11.417969-.542968 20.3125-10.109375 20.023438-21.535156-.285157-11.425781-9.648438-20.535156-21.078125-20.503906zm0 0"/><path d="m141.96875 408.398438c1.640625-.546876 3.414062-.546876 5.054688 0l20.855468 6.953124 13.785156-6.878906-16.480468-16.480468h-41.375l-16.480469 16.480468 13.785156 6.878906zm0 0"/><path d="m172.070312 431.191406c-1.894531.949219-4.089843 1.101563-6.101562.433594l-21.472656-7.199219-21.472656 7.160157c-2.011719.667968-4.207032.511718-6.101563-.433594l-21.515625-10.761719-27.597656 27.601563h153.375l-27.597656-27.601563zm0 0"/><path d="m60.496094 111.992188h20.734375l6-4-6-4h-20.734375c-2.210938 0-4 1.789062-4 4 0 2.207031 1.789062 4 4 4zm0 0"/><path d="m89.839844 248.792969c8.40625 4.882812 19.066406 3.359375 25.769531-3.683594 6.703125-7.039063 7.699219-17.761719 2.40625-25.917969-1.863281-2.902344-1.65625-6.671875.511719-9.351562 8.25-10.253906 18.242187-18.972656 29.519531-25.75-26.964844-1.335938-52.410156 12.523437-65.910156 35.902344-.121094.355468-.269531.699218-.441407 1.03125-5.09375 9.949218-1.519531 22.148437 8.144532 27.769531zm0 0"/><path d="m60.496094 143.992188h28c1.582031 0 3.125-.46875 4.441406-1.34375l24-16c2.222656-1.484376 3.558594-3.980469 3.558594-6.65625v-24c0-2.675782-1.335938-5.171876-3.558594-6.65625l-24-16c-1.316406-.875-2.859375-1.34375-4.441406-1.34375h-28c-19.882813 0-36 16.117187-36 36 0 19.882812 16.117187 36 36 36zm0-56h25.601562l18.398438 12.28125v15.4375l-18.398438 12.28125h-25.601562c-11.046875 0-20-8.953126-20-20 0-11.046876 8.953125-20 20-20zm0 0"/><path d="m207.761719 103.992188-6 4 6 4h20.734375c2.210937 0 4-1.792969 4-4 0-2.210938-1.789063-4-4-4zm0 0"/><path d="m237.179688 183.992188 11.3125-11.3125 11.316406 11.3125-11.316406 11.3125zm0 0"/><path d="m280.382812 110.238281c-1.203124 27.796875-24.066406 49.71875-51.886718 49.753907h-28c-4.734375.015624-9.367188-1.378907-13.3125-4l-24-16c-1.683594-1.136719-3.214844-2.480469-4.558594-4h-28.257812c-1.34375 1.519531-2.875 2.863281-4.558594 4l-24 16c-3.945313 2.621093-8.578125 4.015624-13.3125 4h-28c-27.820313-.035157-50.683594-21.957032-51.886719-49.753907l-8.113281 12.152344v309.601563c0 8.835937 7.164062 16 16 16h24v-48h16v36.6875l31.671875-31.679688 26.671875-26.664062c1.5-1.5 3.535156-2.34375 5.65625-2.34375h48c2.121094 0 4.15625.84375 5.65625 2.34375l26.671875 26.664062 39.671875 39.679688v-28.6875h16v32h16c8.835937 0 16-7.164063 16-16v-309.601563zm-213.445312 104.53125c.152344-.480469.355469-.9375.597656-1.378906.296875-.613281.503906-1.015625.730469-1.40625 21.066406-36.390625 64.914063-52.824219 104.710937-39.25 2.960938 1.015625 5.058594 3.667969 5.367188 6.78125.304688 3.117187-1.230469 6.125-3.9375 7.699219l-17.191406 10.023437c-8.542969 5-16.253906 11.296875-22.855469 18.671875 6.773437 15.652344 1.976563 33.90625-11.613281 44.207032-13.59375 10.300781-32.464844 9.980468-45.699219-.777344-13.238281-10.753906-17.410156-29.160156-10.109375-44.570313zm-50.441406-46.777343h16v16h-16zm0 32h16v16h-16zm0 32h16v16h-16zm15.03125 157.65625-11.320313-11.3125 11.3125-11.3125 11.320313 11.3125zm0-33.945313-11.320313-11.3125 11.3125-11.3125 11.320313 11.3125zm33.945312 33.945313-11.320312-11.3125 11.3125-11.3125 11.320312 11.3125zm0-33.945313-11.320312-11.3125 11.3125-11.3125 11.320312 11.3125zm82.101563-11.949219c-.488281.097656-.984375.15625-1.484375.167969-.699219.070313-1.144532.070313-1.59375.070313-42.050782-.046876-78.207032-29.800782-86.34375-71.054688-.597656-3.070312.644531-6.207031 3.1875-8.03125 2.539062-1.824219 5.910156-2 8.628906-.449219l17.289062 9.871094c8.59375 4.898437 17.898438 8.429687 27.582032 10.464844 10.167968-13.691407 28.371094-18.667969 44.085937-12.046875 15.714844 6.617187 24.878907 23.117187 22.183594 39.957031-2.691406 16.835937-16.539063 29.660156-33.535156 31.050781zm54.753906-21.464844c-1.453125 1.265626-3.320313 1.964844-5.25 1.96875-4.417969 0-8-3.582031-8-8l-.085937-19.90625c-.054688-9.898437-1.65625-19.722656-4.746094-29.128906-16.9375-1.960937-30.34375-15.242187-32.46875-32.160156-2.121094-16.921875 7.589844-33.101562 23.519531-39.1875s33.957031-.5 43.65625 13.523438c.332031.375.628906.78125.886719 1.210937.382812.558594.625.925781.847656 1.320313 21.011719 36.449218 13.324219 82.671874-18.359375 110.359374zm68.800781 65.015626-11.3125 11.3125-11.320312-11.3125-11.3125 11.3125-11.3125-11.3125 11.3125-11.3125-11.3125-11.3125 11.3125-11.3125 11.3125 11.3125 11.3125-11.3125 11.3125 11.3125-11.3125 11.3125zm0-192-11.3125 11.3125-11.320312-11.3125-11.3125 11.3125-11.3125-11.3125 11.3125-11.3125-11.3125-11.3125 11.3125-11.3125 11.3125 11.3125 11.3125-11.3125 11.3125 11.3125-11.3125 11.3125zm0 0"/><path d="m200.496094 71.992188c-1.582032 0-3.125.46875-4.441406 1.34375l-24 16c-2.222657 1.484374-3.558594 3.980468-3.558594 6.65625v24c0 2.675781 1.335937 5.171874 3.558594 6.65625l24 16c1.316406.875 2.859374 1.34375 4.441406 1.34375h28c19.882812 0 36-16.117188 36-36 0-19.882813-16.117188-36-36-36zm48 36c0 11.046874-8.953125 20-20 20h-25.601563l-18.398437-12.28125v-15.4375l18.398437-12.28125h25.601563c11.046875 0 20 8.953124 20 20zm0 0"/><path d="m152.496094 6.214844c-.933594-3.65625-4.226563-6.214844-8-6.214844-3.773438 0-7.066406 2.558594-8 6.214844v9.777344h16zm0 0"/><path d="m237.183594 375.988281 11.3125-11.3125 11.316406 11.3125-11.316406 11.316407zm0 0"/><path d="m323.695312 143.992188h-3.199218v16h3.199218c20.390626.019531 40.328126-6.019532 57.28125-17.34375l-8.878906-13.3125c-14.328125 9.570312-31.171875 14.671874-48.402344 14.65625zm0 0"/><path d="m320.496094 167.992188v16c17.027344.058593 32.792968 8.988281 41.601562 23.558593l7.535156 12.5625 13.710938-8.242187-7.527344-12.550782c-11.707031-19.382812-32.675781-31.257812-55.320312-31.328124zm0 0"/></svg>